<svg width="48" height="40" viewBox="0 0 48 40" fill="none" xmlns="http://www.w3.org/2000/svg">
  <!-- Main Robot Head -->
  <rect x="8" y="8" width="32" height="24" rx="6" fill="url(#gradient1)" stroke="#00d4ff" stroke-width="1"/>
  
  <!-- Eyes -->
  <circle cx="18" cy="18" r="3" fill="#00ff88"/>
  <circle cx="30" cy="18" r="3" fill="#00ff88"/>
  <circle cx="18" cy="18" r="1.5" fill="#0a0a0f"/>
  <circle cx="30" cy="18" r="1.5" fill="#0a0a0f"/>
  
  <!-- Mouth/Speaker -->
  <rect x="20" y="24" width="8" height="4" rx="2" fill="#8b5cf6"/>
  <rect x="21" y="25" width="1" height="2" fill="#00d4ff"/>
  <rect x="23" y="25" width="1" height="2" fill="#00d4ff"/>
  <rect x="25" y="25" width="1" height="2" fill="#00d4ff"/>
  
  <!-- Antennas -->
  <circle cx="16" cy="6" r="2" fill="#ff0080"/>
  <line x1="16" y1="8" x2="16" y2="12" stroke="#00d4ff" stroke-width="2"/>
  <circle cx="32" cy="6" r="2" fill="#ff0080"/>
  <line x1="32" y1="8" x2="32" y2="12" stroke="#00d4ff" stroke-width="2"/>
  
  <!-- Side panels -->
  <rect x="4" y="14" width="3" height="8" rx="1.5" fill="#8b5cf6"/>
  <rect x="41" y="14" width="3" height="8" rx="1.5" fill="#8b5cf6"/>
  
  <!-- Bottom connectors -->
  <rect x="14" y="32" width="4" height="6" rx="2" fill="#00d4ff"/>
  <rect x="30" y="32" width="4" height="6" rx="2" fill="#00d4ff"/>
  
  <defs>
    <linearGradient id="gradient1" x1="0%" y1="0%" x2="100%" y2="100%">
      <stop offset="0%" style="stop-color:#1a1a2e;stop-opacity:1" />
      <stop offset="100%" style="stop-color:#16213e;stop-opacity:1" />
    </linearGradient>
  </defs>
</svg>